<svg xmlns="http://www.w3.org/2000/svg" viewBox="0 0 32 32"><defs><style>.cls-1{fill:none;}.cls-2{fill:#fff;}.cls-3{fill:#59575c;}</style></defs><title>social-icon-facebook-day</title><g id="transparent_border" data-name="transparent border"><rect class="cls-1" width="32" height="32"/></g><g id="icon-bg"><rect class="cls-2" x="2" y="2" width="28" height="28" rx="4"/></g><g id="icons"><path class="cls-3" d="M26,2H6A4,4,0,0,0,2,6V26a4,4,0,0,0,4,4H17V19.17H13.32V14.93H17V11.81c0-3.61,2.21-5.58,5.43-5.58a32.34,32.34,0,0,1,3.26.16v3.78H23.43c-1.75,0-2.1.83-2.1,2.06v2.7h4.2L25,19.17H21.31V30H26a4,4,0,0,0,4-4V6A4,4,0,0,0,26,2Z"/></g></svg>