<svg xmlns="http://www.w3.org/2000/svg" viewBox="0 0 32 32"><defs><style>.cls-1{fill:none;}.cls-2{fill:#fff;}.cls-3{fill:#59575c;}</style></defs><title>social-icon-instagram-day</title><g id="transparent_border" data-name="transparent border"><rect class="cls-1" width="32" height="32"/></g><g id="icon-bg"><rect class="cls-2" x="3.4" y="3.4" width="25.2" height="25.2" rx="3.6"/></g><g id="icons"><path class="cls-3" d="M23,10.69A3.08,3.08,0,0,0,21.31,9a5.12,5.12,0,0,0-1.67-.31c-.95,0-1.24-.05-3.64-.05s-2.69,0-3.64.05A5.12,5.12,0,0,0,10.69,9,3.08,3.08,0,0,0,9,10.69a5.12,5.12,0,0,0-.31,1.67c0,1-.05,1.24-.05,3.64s0,2.69.05,3.64A5.12,5.12,0,0,0,9,21.31,3.08,3.08,0,0,0,10.69,23a5.12,5.12,0,0,0,1.67.31c1,0,1.24.05,3.64.05s2.69,0,3.64-.05A5.12,5.12,0,0,0,21.31,23,3.08,3.08,0,0,0,23,21.31a5.12,5.12,0,0,0,.31-1.67c0-.95.05-1.24.05-3.64s0-2.69-.05-3.64A5.12,5.12,0,0,0,23,10.69Zm-7,9.93A4.62,4.62,0,1,1,20.62,16,4.62,4.62,0,0,1,16,20.62Zm4.8-8.34a1.08,1.08,0,0,1,0-2.16,1.08,1.08,0,0,1,0,2.16Z"/><circle class="cls-3" cx="16" cy="16" r="3"/><path class="cls-3" d="M26,2H6A4,4,0,0,0,2,6V26a4,4,0,0,0,4,4H26a4,4,0,0,0,4-4V6A4,4,0,0,0,26,2ZM25,19.71a6.9,6.9,0,0,1-.42,2.19,4.64,4.64,0,0,1-2.63,2.63,6.9,6.9,0,0,1-2.19.42c-1,0-1.27.05-3.71.05s-2.75,0-3.71-.05a6.9,6.9,0,0,1-2.19-.42A4.64,4.64,0,0,1,7.47,21.9a6.9,6.9,0,0,1-.42-2.19c0-1,0-1.27,0-3.71s0-2.75,0-3.71a6.9,6.9,0,0,1,.42-2.19A4.64,4.64,0,0,1,10.1,7.47a6.9,6.9,0,0,1,2.19-.42c1,0,1.27,0,3.71,0s2.75,0,3.71,0a6.9,6.9,0,0,1,2.19.42,4.64,4.64,0,0,1,2.63,2.63A6.9,6.9,0,0,1,25,12.29c0,1,.05,1.27.05,3.71S25,18.75,25,19.71Z"/></g></svg>