<svg xmlns="http://www.w3.org/2000/svg" viewBox="0 0 32 32"><defs><style>.cls-1{fill:none;}.cls-2{fill:#fff;}.cls-3{fill:#59575c;}</style></defs><title>social-icon-linkedin-day</title><g id="transparent_border" data-name="transparent border"><rect class="cls-1" width="32" height="32"/></g><g id="icon-bg"><rect class="cls-2" x="3.4" y="3.4" width="25.2" height="25.2" rx="3.6"/></g><g id="icons"><path class="cls-3" d="M26,2H6A4,4,0,0,0,2,6V26a4,4,0,0,0,4,4H26a4,4,0,0,0,4-4V6A4,4,0,0,0,26,2ZM10.31,25.86H6.15V12.5h4.16ZM8.23,10.67a2.41,2.41,0,1,1,2.41-2.41A2.4,2.4,0,0,1,8.23,10.67ZM25.86,25.86H21.71v-6.5c0-1.55,0-3.54-2.16-3.54s-2.49,1.69-2.49,3.43v6.61H12.91V12.5h4v1.82H17a4.36,4.36,0,0,1,3.93-2.15c4.2,0,5,2.76,5,6.36Z"/></g></svg>