<svg viewBox="0 0 18 18" xmlns="http://www.w3.org/2000/svg">

  <defs>
    <style><![CDATA[
      .sprite { display: none; }
      .sprite:target { display: inline; }
    ]]></style>
  </defs>
  
  <g class="sprite" id="chevron-left-gray">
      <path fill-rule="evenodd" clip-rule="evenodd" d="M6.84608 13.6612L0.446079 7.35355C0.261463 7.16893 0.261463 6.86124 0.446079 6.67662L6.84608 0.36893C7.03069 0.184315 7.33838 0.184315 7.523 0.36893L8.19992 1.04585C8.38454 1.23047 8.38454 1.53816 8.19992 1.72278L3.123 6.67662C2.93839 6.86124 2.93839 7.16893 3.123 7.35355L8.13838 12.3074C8.323 12.492 8.323 12.7997 8.13838 12.9843L7.46146 13.6612C7.30762 13.8151 7.03069 13.8151 6.84608 13.6612Z" fill="#939393"></path>
  </g>

  <g class="sprite" id="chevron-left-blue">
      <path fill-rule="evenodd" clip-rule="evenodd" d="M6.84608 13.6612L0.446079 7.35355C0.261463 7.16893 0.261463 6.86124 0.446079 6.67662L6.84608 0.36893C7.03069 0.184315 7.33838 0.184315 7.523 0.36893L8.19992 1.04585C8.38454 1.23047 8.38454 1.53816 8.19992 1.72278L3.123 6.67662C2.93839 6.86124 2.93839 7.16893 3.123 7.35355L8.13838 12.3074C8.323 12.492 8.323 12.7997 8.13838 12.9843L7.46146 13.6612C7.30762 13.8151 7.03069 13.8151 6.84608 13.6612Z" fill="#032D60"></path>
  </g>

  <g class="sprite" id="chevron-right-gray">
      <path fill-rule="evenodd" clip-rule="evenodd" d="M2.25015 0.682317L10.2117 8.56693C10.4425 8.7977 10.4425 9.18232 10.2117 9.41309L2.25015 17.2977C2.01938 17.5285 1.63477 17.5285 1.404 17.2977L0.557843 16.4515C0.327073 16.2208 0.327073 15.8362 0.557843 15.6054L6.82707 9.41309C7.05784 9.18232 7.05784 8.7977 6.82707 8.56693L0.596304 2.37462C0.365535 2.14386 0.365535 1.75924 0.596304 1.52847L1.44246 0.682317C1.67323 0.490009 2.01938 0.490009 2.25015 0.682317Z" fill="#939393"></path>
  </g>

  <g class="sprite" id="chevron-right-blue">
      <path fill-rule="evenodd" clip-rule="evenodd" d="M2.25015 0.682317L10.2117 8.56693C10.4425 8.7977 10.4425 9.18232 10.2117 9.41309L2.25015 17.2977C2.01938 17.5285 1.63477 17.5285 1.404 17.2977L0.557843 16.4515C0.327073 16.2208 0.327073 15.8362 0.557843 15.6054L6.82707 9.41309C7.05784 9.18232 7.05784 8.7977 6.82707 8.56693L0.596304 2.37462C0.365535 2.14386 0.365535 1.75924 0.596304 1.52847L1.44246 0.682317C1.67323 0.490009 2.01938 0.490009 2.25015 0.682317Z" fill="#032D60"></path>
  </g>

  <g class="sprite" id="globe-blue">
      <path fill-rule="evenodd" clip-rule="evenodd" d="M9.0001 1.57461C4.89938 1.57461 1.5751 4.8989 1.5751 8.99961C1.5751 13.1003 4.89938 16.4246 9.0001 16.4246C13.1008 16.4246 16.4251 13.1003 16.4251 8.99961C16.4251 4.8989 13.1008 1.57461 9.0001 1.57461ZM0.225098 8.99961C0.225098 4.15331 4.1538 0.224609 9.0001 0.224609C13.8464 0.224609 17.7751 4.15331 17.7751 8.99961C17.7751 13.8459 13.8464 17.7746 9.0001 17.7746C4.1538 17.7746 0.225098 13.8459 0.225098 8.99961Z" fill="#032D60"></path>
      <path fill-rule="evenodd" clip-rule="evenodd" d="M6.83568 3.56605C6.17972 4.9217 5.75512 6.84192 5.75512 8.99961C5.75512 11.1573 6.17972 13.0775 6.83568 14.4332C7.51435 15.8358 8.32288 16.4246 9.0001 16.4246C9.67731 16.4246 10.4846 15.8358 11.1633 14.4332C11.8192 13.0775 12.2438 11.1573 12.2438 8.99961C12.2438 6.84192 11.8192 4.9217 11.1633 3.56605C10.4846 2.16346 9.67731 1.57461 9.0001 1.57461C8.32288 1.57461 7.51435 2.16346 6.83568 3.56605ZM5.62047 2.97804C6.36032 1.44901 7.51271 0.224609 9.0001 0.224609C10.4875 0.224609 11.6386 1.44901 12.3785 2.97804C13.1411 4.55401 13.5938 6.68379 13.5938 8.99961C13.5938 11.3154 13.1411 13.4452 12.3785 15.0212C11.6386 16.5502 10.4875 17.7746 9.0001 17.7746C7.51271 17.7746 6.36032 16.5502 5.62047 15.0212C4.8579 13.4452 4.40512 11.3154 4.40512 8.99961C4.40512 6.68379 4.8579 4.55401 5.62047 2.97804Z" fill="#032D60"></path>
      <path fill-rule="evenodd" clip-rule="evenodd" d="M9.0001 0.224609C9.37289 0.224609 9.6751 0.526817 9.6751 0.899609V17.0996C9.6751 17.4724 9.37289 17.7746 9.0001 17.7746C8.62731 17.7746 8.3251 17.4724 8.3251 17.0996V0.899609C8.3251 0.526817 8.62731 0.224609 9.0001 0.224609Z" fill="#032D60"></path>
      <path fill-rule="evenodd" clip-rule="evenodd" d="M0.225098 8.99961C0.225098 8.62682 0.527305 8.32461 0.900098 8.32461H17.1001C17.4729 8.32461 17.7751 8.62682 17.7751 8.99961C17.7751 9.3724 17.4729 9.67461 17.1001 9.67461H0.900098C0.527305 9.67461 0.225098 9.3724 0.225098 8.99961Z" fill="#032D60"></path>
  </g>

  <g class="sprite" id="globe-light-blue">
      <path fill-rule="evenodd" clip-rule="evenodd" d="M9.0001 1.57461C4.89938 1.57461 1.5751 4.8989 1.5751 8.99961C1.5751 13.1003 4.89938 16.4246 9.0001 16.4246C13.1008 16.4246 16.4251 13.1003 16.4251 8.99961C16.4251 4.8989 13.1008 1.57461 9.0001 1.57461ZM0.225098 8.99961C0.225098 4.15331 4.1538 0.224609 9.0001 0.224609C13.8464 0.224609 17.7751 4.15331 17.7751 8.99961C17.7751 13.8459 13.8464 17.7746 9.0001 17.7746C4.1538 17.7746 0.225098 13.8459 0.225098 8.99961Z" fill="#0176D3"></path>
      <path fill-rule="evenodd" clip-rule="evenodd" d="M6.83568 3.56605C6.17972 4.9217 5.75512 6.84192 5.75512 8.99961C5.75512 11.1573 6.17972 13.0775 6.83568 14.4332C7.51435 15.8358 8.32288 16.4246 9.0001 16.4246C9.67731 16.4246 10.4846 15.8358 11.1633 14.4332C11.8192 13.0775 12.2438 11.1573 12.2438 8.99961C12.2438 6.84192 11.8192 4.9217 11.1633 3.56605C10.4846 2.16346 9.67731 1.57461 9.0001 1.57461C8.32288 1.57461 7.51435 2.16346 6.83568 3.56605ZM5.62047 2.97804C6.36032 1.44901 7.51271 0.224609 9.0001 0.224609C10.4875 0.224609 11.6386 1.44901 12.3785 2.97804C13.1411 4.55401 13.5938 6.68379 13.5938 8.99961C13.5938 11.3154 13.1411 13.4452 12.3785 15.0212C11.6386 16.5502 10.4875 17.7746 9.0001 17.7746C7.51271 17.7746 6.36032 16.5502 5.62047 15.0212C4.8579 13.4452 4.40512 11.3154 4.40512 8.99961C4.40512 6.68379 4.8579 4.55401 5.62047 2.97804Z" fill="#0176D3"></path>
      <path fill-rule="evenodd" clip-rule="evenodd" d="M9.0001 0.224609C9.37289 0.224609 9.6751 0.526817 9.6751 0.899609V17.0996C9.6751 17.4724 9.37289 17.7746 9.0001 17.7746C8.62731 17.7746 8.3251 17.4724 8.3251 17.0996V0.899609C8.3251 0.526817 8.62731 0.224609 9.0001 0.224609Z" fill="#0176D3"></path>
      <path fill-rule="evenodd" clip-rule="evenodd" d="M0.225098 8.99961C0.225098 8.62682 0.527305 8.32461 0.900098 8.32461H17.1001C17.4729 8.32461 17.7751 8.62682 17.7751 8.99961C17.7751 9.3724 17.4729 9.67461 17.1001 9.67461H0.900098C0.527305 9.67461 0.225098 9.3724 0.225098 8.99961Z" fill="#0176D3"></path>
  </g>

  <g class="sprite" id="phone-blue">
      <path fill-rule="evenodd" clip-rule="evenodd" d="M16.8578 13.1086L14.7462 11.4125C14.2616 11.0317 13.5693 10.9971 13.0847 11.3779L11.2847 12.6933C11.077 12.8663 10.7655 12.8317 10.5578 12.624L7.85777 10.2009L5.43469 7.50095C5.227 7.29325 5.227 7.01633 5.36546 6.77402L6.68084 4.97402C7.06161 4.48941 7.027 3.7971 6.64623 3.31248L4.95008 1.20095C4.43084 0.577869 3.49623 0.508638 2.90777 1.0971L1.10777 2.8971C0.830844 3.17402 0.692383 3.55479 0.692383 3.93556C0.86546 7.46633 2.45777 10.824 4.81161 13.1779C7.16546 15.5317 10.5232 17.124 14.0539 17.2971C14.4347 17.3317 14.8155 17.1586 15.0924 16.8817L16.8924 15.0817C17.5501 14.5625 17.5155 13.5933 16.8578 13.1086Z" fill="#032D60"></path>
  </g>

  <g class="sprite" id="phone-light-blue">
      <path fill-rule="evenodd" clip-rule="evenodd" d="M16.8578 13.1086L14.7462 11.4125C14.2616 11.0317 13.5693 10.9971 13.0847 11.3779L11.2847 12.6933C11.077 12.8663 10.7655 12.8317 10.5578 12.624L7.85777 10.2009L5.43469 7.50095C5.227 7.29325 5.227 7.01633 5.36546 6.77402L6.68084 4.97402C7.06161 4.48941 7.027 3.7971 6.64623 3.31248L4.95008 1.20095C4.43084 0.577869 3.49623 0.508638 2.90777 1.0971L1.10777 2.8971C0.830844 3.17402 0.692383 3.55479 0.692383 3.93556C0.86546 7.46633 2.45777 10.824 4.81161 13.1779C7.16546 15.5317 10.5232 17.124 14.0539 17.2971C14.4347 17.3317 14.8155 17.1586 15.0924 16.8817L16.8924 15.0817C17.5501 14.5625 17.5155 13.5933 16.8578 13.1086Z" fill="#0176D3"></path>
  </g>

  <g class="sprite" id="search-blue">
      <path fill-rule="evenodd" clip-rule="evenodd" d="M17.1686 15.6801L12.5301 11.0763C13.4647 9.76089 13.9494 8.09935 13.707 6.33397C13.2917 3.35704 10.8686 1.0032 7.85705 0.726274C3.77243 0.31089 0.310895 3.77243 0.72628 7.89166C1.0032 10.8686 3.35705 13.3263 6.33397 13.7417C8.09936 13.984 9.76089 13.4994 11.0763 12.5647L15.6801 17.1686C15.8878 17.3763 16.1994 17.3763 16.407 17.1686L17.134 16.4417C17.3417 16.234 17.3417 15.8878 17.1686 15.6801ZM2.76857 7.23394C2.76857 4.77625 4.77626 2.76856 7.23395 2.76856C9.69165 2.76856 11.6993 4.77625 11.6993 7.23394C11.6993 9.69164 9.69165 11.6993 7.23395 11.6993C4.77626 11.6993 2.76857 9.72625 2.76857 7.23394Z" fill="#032D60"></path>
  </g>

  <g class="sprite" id="search-light-blue">
      <path fill-rule="evenodd" clip-rule="evenodd" d="M17.1686 15.6801L12.5301 11.0763C13.4647 9.76089 13.9494 8.09935 13.707 6.33397C13.2917 3.35704 10.8686 1.0032 7.85705 0.726274C3.77243 0.31089 0.310895 3.77243 0.72628 7.89166C1.0032 10.8686 3.35705 13.3263 6.33397 13.7417C8.09936 13.984 9.76089 13.4994 11.0763 12.5647L15.6801 17.1686C15.8878 17.3763 16.1994 17.3763 16.407 17.1686L17.134 16.4417C17.3417 16.234 17.3417 15.8878 17.1686 15.6801ZM2.76857 7.23394C2.76857 4.77625 4.77626 2.76856 7.23395 2.76856C9.69165 2.76856 11.6993 4.77625 11.6993 7.23394C11.6993 9.69164 9.69165 11.6993 7.23395 11.6993C4.77626 11.6993 2.76857 9.72625 2.76857 7.23394Z" fill="#0176D3"></path>
  </g>

  <g class="sprite" id="user-blue">
      <path fill-rule="evenodd" clip-rule="evenodd" d="M17.3078 14.8847V15.6462C17.3078 16.5462 16.5462 17.3077 15.6462 17.3077H2.35392C1.45392 17.3077 0.692383 16.5462 0.692383 15.6462V14.8847C0.692383 12.877 3.04623 11.6308 5.26161 10.6616L5.46931 10.5577C5.64238 10.4885 5.81546 10.4885 5.98854 10.5923C6.88854 11.1808 7.89238 11.4923 8.96546 11.4923C10.0385 11.4923 11.077 11.1462 11.9424 10.5923C12.1155 10.4885 12.2885 10.4885 12.4616 10.5577L12.6693 10.6616C14.9539 11.6308 17.3078 12.8423 17.3078 14.8847ZM9.00006 0.692383C11.2847 0.692383 13.1193 2.73469 13.1193 5.26161C13.1193 7.78854 11.2847 9.83084 9.00006 9.83084C6.71545 9.83084 4.88083 7.78854 4.88083 5.26161C4.88083 2.73469 6.71545 0.692383 9.00006 0.692383Z" fill="#032D60"></path>
  </g>

  <g class="sprite" id="user-light-blue">
      <path fill-rule="evenodd" clip-rule="evenodd" d="M17.3078 14.8847V15.6462C17.3078 16.5462 16.5462 17.3077 15.6462 17.3077H2.35392C1.45392 17.3077 0.692383 16.5462 0.692383 15.6462V14.8847C0.692383 12.877 3.04623 11.6308 5.26161 10.6616L5.46931 10.5577C5.64238 10.4885 5.81546 10.4885 5.98854 10.5923C6.88854 11.1808 7.89238 11.4923 8.96546 11.4923C10.0385 11.4923 11.077 11.1462 11.9424 10.5923C12.1155 10.4885 12.2885 10.4885 12.4616 10.5577L12.6693 10.6616C14.9539 11.6308 17.3078 12.8423 17.3078 14.8847ZM9.00006 0.692383C11.2847 0.692383 13.1193 2.73469 13.1193 5.26161C13.1193 7.78854 11.2847 9.83084 9.00006 9.83084C6.71545 9.83084 4.88083 7.78854 4.88083 5.26161C4.88083 2.73469 6.71545 0.692383 9.00006 0.692383Z" fill="#0176D3"></path>
  </g>
  
  <g class="sprite" id="hamburger-blue">
    <path fill-rule="evenodd" clip-rule="evenodd" d="M18.6732 2.92298H1.327C0.988537 2.92298 0.692383 2.62683 0.692383 2.28837V1.01914C0.692383 0.680675 0.988537 0.384521 1.327 0.384521H18.6732C19.0116 0.384521 19.3078 0.680675 19.3078 1.01914V2.28837C19.3078 2.62683 19.0116 2.92298 18.6732 2.92298ZM18.6732 9.22683H1.327C0.988537 9.22683 0.692383 8.93068 0.692383 8.59221V7.32298C0.692383 7.02683 0.988537 6.73068 1.327 6.73068H18.6732C19.0116 6.73068 19.3078 7.02683 19.3078 7.36529V8.63452C19.3078 8.93068 19.0116 9.22683 18.6732 9.22683ZM18.6732 15.6153H1.327C0.988537 15.6153 0.692383 15.3191 0.692383 14.9807V13.7114C0.692383 13.373 0.988537 13.0768 1.327 13.0768H18.6732C19.0116 13.0768 19.3078 13.373 19.3078 13.7114V14.9807C19.3078 15.3191 19.0116 15.6153 18.6732 15.6153Z" fill="#032D60"/>
  </g>

  <g class="sprite" id="close-blue">
    <path fill-rule="evenodd" clip-rule="evenodd" d="M10.3059 7.93669L15.8059 2.39438C16.0598 2.14053 16.0598 1.75977 15.8059 1.50592L14.9598 0.617458C14.7059 0.363612 14.3252 0.363612 14.0713 0.617458L8.529 6.15977C8.35977 6.329 8.10592 6.329 7.93669 6.15977L2.39438 0.57515C2.14053 0.321304 1.75977 0.321304 1.50592 0.57515L0.617458 1.46361C0.363612 1.71746 0.363612 2.09823 0.617458 2.35207L6.15977 7.89438C6.329 8.06361 6.329 8.31746 6.15977 8.48669L0.57515 14.0713C0.321304 14.3251 0.321304 14.7059 0.57515 14.9598L1.46361 15.8482C1.71746 16.1021 2.09823 16.1021 2.35207 15.8482L7.89438 10.3059C8.06361 10.1367 8.31746 10.1367 8.48669 10.3059L14.029 15.8482C14.2828 16.1021 14.6636 16.1021 14.9175 15.8482L15.8059 14.9598C16.0598 14.7059 16.0598 14.3251 15.8059 14.0713L10.3059 8.529C10.1367 8.35977 10.1367 8.10592 10.3059 7.93669Z" fill="#032D60"/>
  </g>

</svg>