<svg xmlns="http://www.w3.org/2000/svg" viewBox="0 0 32 32"><defs><style>.cls-1{fill:none;}.cls-2{fill:#fff;}.cls-3{fill:#59575c;}</style></defs><title>social-icon-twitter-day</title><g id="transparent_border" data-name="transparent border"><rect class="cls-1" width="32" height="32"/></g><g id="icon-bg"><rect class="cls-2" x="3.4" y="3.4" width="25.2" height="25.2" rx="3.6"/></g><g id="icons"><path class="cls-3" d="M26,2H6A4,4,0,0,0,2,6V26a4,4,0,0,0,4,4H26a4,4,0,0,0,4-4V6A4,4,0,0,0,26,2ZM22.35,12.75v.4a9.35,9.35,0,0,1-4.9,8.2,9.48,9.48,0,0,1-9.5-.3h.8a6.77,6.77,0,0,0,4.1-1.4,3.3,3.3,0,0,1-3.1-2.3c.2,0,.4.1.6.1a2.77,2.77,0,0,0,.9-.1,3.23,3.23,0,0,1-2.6-3.2,2.82,2.82,0,0,0,1.5.4,3.33,3.33,0,0,1-1.1-4.4,9.38,9.38,0,0,0,6.8,3.4,1.7,1.7,0,0,1-.1-.7,3.35,3.35,0,0,1,2.1-3.1,3.21,3.21,0,0,1,3.6.8,4.85,4.85,0,0,0,2.1-.8,3.19,3.19,0,0,1-1.4,1.8,5.92,5.92,0,0,0,1.9-.5A13.62,13.62,0,0,1,22.35,12.75Z"/></g></svg>