<svg xmlns="http://www.w3.org/2000/svg" viewBox="0 0 32 32"><defs><style>.cls-1{fill:none;}.cls-2{fill:#fff;}.cls-3{fill:#59575c;}</style></defs><title>social-icon-youtube-day</title><g id="transparent_border" data-name="transparent border"><rect class="cls-1" width="32" height="32"/></g><g id="icon-bg"><rect class="cls-2" x="3.4" y="3.4" width="25.2" height="25.2" rx="3.6"/></g><g id="icons"><path class="cls-3" d="M26,2H6A4,4,0,0,0,2,6V26a4,4,0,0,0,4,4H26a4,4,0,0,0,4-4V6A4,4,0,0,0,26,2Zm-.78,18.66a2.42,2.42,0,0,1-1.7,1.72,57.83,57.83,0,0,1-7.52.4,57.83,57.83,0,0,1-7.52-.4,2.42,2.42,0,0,1-1.7-1.72A25.48,25.48,0,0,1,6.38,16a25.48,25.48,0,0,1,.4-4.66,2.42,2.42,0,0,1,1.7-1.72A57.83,57.83,0,0,1,16,9.22a57.83,57.83,0,0,1,7.52.4,2.42,2.42,0,0,1,1.7,1.72,25.48,25.48,0,0,1,.4,4.66A25.48,25.48,0,0,1,25.22,20.66Z"/><polygon class="cls-3" points="14.03 18.86 19.06 16 14.03 13.14 14.03 18.86"/></g></svg>